2023-11-15 01:20:17,842 - ffmpeg_logger - ERROR - Error in command ffmpeg -f dshow -i video="OBS Virtual Camera" -c:v libx264 -crf 23 -preset veryfast -segment_time 60 -f segment -reset_timestamps 1 output_obs_virtual_camera_%03d.mp4: ffmpeg version N-112750-g6d60cc7baf-20231114 Copyright (c) 2000-2023 the FFmpeg developers
  built with gcc 13.2.0 (crosstool-NG 1.25.0.232_c175b21)
  configuration: --prefix=/ffbuild/prefix --pkg-config-flags=--static --pkg-config=pkg-config --cross-prefix=x86_64-w64-mingw32- --arch=x86_64 --target-os=mingw32 --enable-gpl --enable-version3 --disable-debug --disable-w32threads --enable-pthreads --enable-iconv --enable-libxml2 --enable-zlib --enable-libfreetype --enable-libfribidi --enable-gmp --enable-lzma --enable-fontconfig --enable-libharfbuzz --enable-libvorbis --enable-opencl --disable-libpulse --enable-libvmaf --disable-libxcb --disable-xlib --enable-amf --enable-libaom --enable-libaribb24 --enable-avisynth --enable-chromaprint --enable-libdav1d --enable-libdavs2 --disable-libfdk-aac --enable-ffnvcodec --enable-cuda-llvm --enable-frei0r --enable-libgme --enable-libkvazaar --enable-libaribcaption --enable-libass --enable-libbluray --enable-libjxl --enable-libmp3lame --enable-libopus --enable-librist --enable-libssh --enable-libtheora --enable-libvpx --enable-libwebp --enable-lv2 --enable-libvpl --enable-openal --enable-libopencore-amrnb --enable-libopencore-amrwb --enable-libopenh264 --enable-libopenjpeg --enable-libopenmpt --enable-librav1e --enable-librubberband --enable-schannel --enable-sdl2 --enable-libsoxr --enable-libsrt --enable-libsvtav1 --enable-libtwolame --enable-libuavs3d --disable-libdrm --enable-vaapi --enable-libvidstab --enable-vulkan --enable-libshaderc --enable-libplacebo --enable-libx264 --enable-libx265 --enable-libxavs2 --enable-libxvid --enable-libzimg --enable-libzvbi --extra-cflags=-DLIBTWOLAME_STATIC --extra-cxxflags= --extra-ldflags=-pthread --extra-ldexeflags= --extra-libs=-lgomp --extra-version=20231114
  libavutil      58. 32.100 / 58. 32.100
  libavcodec     60. 33.100 / 60. 33.100
  libavformat    60. 17.100 / 60. 17.100
  libavdevice    60.  4.100 / 60.  4.100
  libavfilter     9. 13.100 /  9. 13.100
  libswscale      7.  6.100 /  7.  6.100
  libswresample   4. 13.100 /  4. 13.100
  libpostproc    57.  4.100 / 57.  4.100
Input #0, dshow, from 'video=OBS Virtual Camera':
  Duration: N/A, start: 372145.762000, bitrate: N/A
  Stream #0:0: Video: rawvideo (NV12 / 0x3231564E), nv12, 1920x1080, 30 fps, 30 tbr, 10000k tbn
Stream mapping:
  Stream #0:0 -> #0:0 (rawvideo (native) -> h264 (libx264))
Press [q] to stop, [?] for help
[libx264 @ 0000012655595700] using cpu capabilities: MMX2 SSE2Fast SSSE3 SSE4.2 AVX FMA3 BMI2 AVX2 AVX512
[libx264 @ 0000012655595700] profile High, level 4.0, 4:2:0, 8-bit
[libx264 @ 0000012655595700] 264 - core 164 - H.264/MPEG-4 AVC codec - Copyleft 2003-2023 - http://www.videolan.org/x264.html - options: cabac=1 ref=1 deblock=1:0:0 analyse=0x3:0x113 me=hex subme=2 psy=1 psy_rd=1.00:0.00 mixed_ref=0 me_range=16 chroma_me=1 trellis=0 8x8dct=1 cqm=0 deadzone=21,11 fast_pskip=1 chroma_qp_offset=0 threads=12 lookahead_threads=4 sliced_threads=0 nr=0 decimate=1 interlaced=0 bluray_compat=0 constrained_intra=0 bframes=3 b_pyramid=2 b_adapt=1 b_bias=0 direct=1 weightb=1 open_gop=0 weightp=1 keyint=250 keyint_min=25 scenecut=40 intra_refresh=0 rc_lookahead=10 rc=crf mbtree=1 crf=23.0 qcomp=0.60 qpmin=0 qpmax=69 qpstep=4 ip_ratio=1.40 aq=1:1.00
[segment @ 00000126575511c0] Opening 'output_obs_virtual_camera_000.mp4' for writing
Output #0, segment, to 'output_obs_virtual_camera_%03d.mp4':
  Metadata:
    encoder         : Lavf60.17.100
  Stream #0:0: Video: h264, nv12(progressive), 1920x1080, q=2-31, 30 fps, 10000k tbn
    Metadata:
      encoder         : Lavc60.33.100 libx264
    Side data:
      cpb: bitrate max/min/avg: 0/0/0 buffer size: 0 vbv_delay: N/A
frame=    0 fps=0.0 q=0.0 size=       0kB time=N/A bitrate=N/A speed=N/A    
frame=    0 fps=0.0 q=0.0 size=       0kB time=N/A bitrate=N/A speed=N/A    
frame=    9 fps=8.6 q=29.0 size=N/A time=00:00:00.20 bitrate=N/A speed=0.192x    
frame=   25 fps= 16 q=29.0 size=N/A time=00:00:00.73 bitrate=N/A speed=0.463x    
frame=   41 fps= 19 q=29.0 size=N/A time=00:00:01.26 bitrate=N/A speed=0.601x    
frame=   57 fps= 22 q=29.0 size=N/A time=00:00:01.79 bitrate=N/A speed=0.682x    
frame=   72 fps= 23 q=29.0 size=N/A time=00:00:02.29 bitrate=N/A speed=0.73x    
frame=   87 fps= 24 q=29.0 size=N/A time=00:00:02.79 bitrate=N/A speed=0.766x    
frame=  103 fps= 25 q=29.0 size=N/A time=00:00:03.33 bitrate=N/A speed=0.798x    
frame=  119 fps= 25 q=29.0 size=N/A time=00:00:03.86 bitrate=N/A speed=0.82x    
frame=  134 fps= 26 q=29.0 size=N/A time=00:00:04.39 bitrate=N/A speed=0.838x    
frame=  151 fps= 26 q=29.0 size=N/A time=00:00:04.93 bitrate=N/A speed=0.852x    
frame=  167 fps= 26 q=29.0 size=N/A time=00:00:05.46 bitrate=N/A speed=0.866x    
frame=  182 fps= 27 q=29.0 size=N/A time=00:00:05.96 bitrate=N/A speed=0.875x    
frame=  198 fps= 27 q=29.0 size=N/A time=00:00:06.49 bitrate=N/A speed=0.885x    
frame=  214 fps= 27 q=29.0 size=N/A time=00:00:07.03 bitrate=N/A speed=0.893x    
frame=  229 fps= 27 q=29.0 size=N/A time=00:00:07.53 bitrate=N/A speed= 0.9x    
frame=  245 fps= 27 q=29.0 size=N/A time=00:00:08.06 bitrate=N/A speed=0.905x    
frame=  260 fps= 28 q=29.0 size=N/A time=00:00:08.59 bitrate=N/A speed=0.911x    
frame=  276 fps= 28 q=29.0 size=N/A time=00:00:09.09 bitrate=N/A speed=0.914x    
frame=  292 fps= 28 q=29.0 size=N/A time=00:00:09.63 bitrate=N/A speed=0.92x    
frame=  307 fps= 28 q=29.0 size=N/A time=00:00:10.13 bitrate=N/A speed=0.923x    
frame=  323 fps= 28 q=29.0 size=N/A time=00:00:10.66 bitrate=N/A speed=0.927x    
frame=  338 fps= 28 q=29.0 size=N/A time=00:00:11.16 bitrate=N/A speed=0.929x    
frame=  354 fps= 28 q=29.0 size=N/A time=00:00:11.69 bitrate=N/A speed=0.932x    
frame=  370 fps= 28 q=29.0 size=N/A time=00:00:12.23 bitrate=N/A speed=0.935x    
frame=  386 fps= 28 q=29.0 size=N/A time=00:00:12.76 bitrate=N/A speed=0.938x    
frame=  400 fps= 28 q=29.0 size=N/A time=00:00:13.26 bitrate=N/A speed=0.94x    
frame=  417 fps= 28 q=29.0 size=N/A time=00:00:13.79 bitrate=N/A speed=0.942x    
frame=  432 fps= 29 q=29.0 size=N/A time=00:00:14.29 bitrate=N/A speed=0.944x    
frame=  447 fps= 29 q=29.0 size=N/A time=00:00:14.79 bitrate=N/A speed=0.945x    
frame=  462 fps= 29 q=29.0 size=N/A time=00:00:15.29 bitrate=N/A speed=0.947x    
frame=  478 fps= 29 q=29.0 size=N/A time=00:00:15.83 bitrate=N/A speed=0.949x    
frame=  493 fps= 29 q=29.0 size=N/A time=00:00:16.33 bitrate=N/A speed=0.95x    
frame=  509 fps= 29 q=29.0 size=N/A time=00:00:16.86 bitrate=N/A speed=0.952x    
frame=  525 fps= 29 q=29.0 size=N/A time=00:00:17.39 bitrate=N/A speed=0.954x    
frame=  541 fps= 29 q=29.0 size=N/A time=00:00:17.93 bitrate=N/A speed=0.954x    
frame=  557 fps= 29 q=29.0 size=N/A time=00:00:18.46 bitrate=N/A speed=0.956x    
frame=  573 fps= 29 q=29.0 size=N/A time=00:00:18.99 bitrate=N/A speed=0.957x    
frame=  588 fps= 29 q=29.0 size=N/A time=00:00:19.49 bitrate=N/A speed=0.958x    
frame=  604 fps= 29 q=29.0 size=N/A time=00:00:20.03 bitrate=N/A speed=0.959x    
frame=  620 fps= 29 q=29.0 size=N/A time=00:00:20.56 bitrate=N/A speed=0.961x    
[dshow @ 0000012655581f80] real-time buffer [OBS Virtual Camera] [video input] too full or near too full (102% of size: 3041280 [rtbufsize parameter])! frame dropped!
frame=  635 fps= 29 q=29.0 size=N/A time=00:00:21.09 bitrate=N/A dup=1 drop=0 speed=0.962x    
frame=  651 fps= 29 q=29.0 size=N/A time=00:00:21.59 bitrate=N/A dup=1 drop=0 speed=0.962x    
frame=  667 fps= 29 q=29.0 size=N/A time=00:00:22.13 bitrate=N/A dup=1 drop=0 speed=0.963x    
frame=  682 fps= 29 q=29.0 size=N/A time=00:00:22.63 bitrate=N/A dup=1 drop=0 speed=0.964x    
frame=  698 fps= 29 q=29.0 size=N/A time=00:00:23.16 bitrate=N/A dup=1 drop=0 speed=0.965x    
frame=  714 fps= 29 q=29.0 size=N/A time=00:00:23.69 bitrate=N/A dup=1 drop=0 speed=0.965x    
frame=  730 fps= 29 q=29.0 size=N/A time=00:00:24.23 bitrate=N/A dup=1 drop=0 speed=0.966x    
frame=  745 fps= 29 q=29.0 size=N/A time=00:00:24.73 bitrate=N/A dup=1 drop=0 speed=0.966x    
frame=  761 fps= 29 q=29.0 size=N/A time=00:00:25.26 bitrate=N/A dup=1 drop=0 speed=0.968x    
frame=  776 fps= 29 q=29.0 size=N/A time=00:00:25.76 bitrate=N/A dup=1 drop=0 speed=0.968x    
frame=  791 fps= 29 q=29.0 size=N/A time=00:00:26.26 bitrate=N/A dup=1 drop=0 speed=0.969x    
frame=  806 fps= 29 q=29.0 size=N/A time=00:00:26.76 bitrate=N/A dup=1 drop=0 speed=0.969x    
frame=  822 fps= 29 q=29.0 size=N/A time=00:00:27.29 bitrate=N/A dup=1 drop=0 speed=0.97x    
frame=  837 fps= 29 q=29.0 size=N/A time=00:00:27.79 bitrate=N/A dup=1 drop=0 speed=0.97x    
frame=  852 fps= 29 q=29.0 size=N/A time=00:00:28.29 bitrate=N/A dup=1 drop=0 speed=0.971x    
frame=  867 fps= 29 q=29.0 size=N/A time=00:00:28.79 bitrate=N/A dup=1 drop=0 speed=0.971x    
frame=  883 fps= 29 q=29.0 size=N/A time=00:00:29.33 bitrate=N/A dup=1 drop=0 speed=0.972x    
frame=  899 fps= 29 q=29.0 size=N/A time=00:00:29.86 bitrate=N/A dup=1 drop=0 speed=0.972x    
frame=  914 fps= 29 q=29.0 size=N/A time=00:00:30.36 bitrate=N/A dup=1 drop=0 speed=0.973x    
frame=  929 fps= 29 q=29.0 size=N/A time=00:00:30.86 bitrate=N/A dup=1 drop=0 speed=0.973x    
frame=  944 fps= 29 q=29.0 size=N/A time=00:00:31.39 bitrate=N/A dup=1 drop=0 speed=0.974x    
frame=  961 fps= 29 q=29.0 size=N/A time=00:00:31.93 bitrate=N/A dup=1 drop=0 speed=0.974x    
frame=  977 fps= 29 q=29.0 size=N/A time=00:00:32.46 bitrate=N/A dup=1 drop=0 speed=0.975x    
frame=  992 fps= 29 q=29.0 size=N/A time=00:00:32.96 bitrate=N/A dup=1 drop=0 speed=0.975x    
frame= 1007 fps= 29 q=29.0 size=N/A time=00:00:33.46 bitrate=N/A dup=1 drop=0 speed=0.975x    
frame= 1023 fps= 29 q=29.0 size=N/A time=00:00:33.99 bitrate=N/A dup=1 drop=0 speed=0.975x    
frame= 1038 fps= 29 q=29.0 size=N/A time=00:00:34.53 bitrate=N/A dup=1 drop=0 speed=0.976x    
frame= 1054 fps= 29 q=29.0 size=N/A time=00:00:35.03 bitrate=N/A dup=1 drop=0 speed=0.976x    
frame= 1070 fps= 29 q=29.0 size=N/A time=00:00:35.56 bitrate=N/A dup=1 drop=0 speed=0.977x    
frame= 1085 fps= 29 q=29.0 size=N/A time=00:00:36.06 bitrate=N/A dup=1 drop=0 speed=0.977x    
frame= 1101 fps= 29 q=29.0 size=N/A time=00:00:36.59 bitrate=N/A dup=1 drop=0 speed=0.977x    
frame= 1116 fps= 29 q=29.0 size=N/A time=00:00:37.09 bitrate=N/A dup=1 drop=0 speed=0.978x    
frame= 1132 fps= 29 q=29.0 size=N/A time=00:00:37.63 bitrate=N/A dup=1 drop=0 speed=0.978x    
frame= 1147 fps= 29 q=29.0 size=N/A time=00:00:38.13 bitrate=N/A dup=1 drop=0 speed=0.978x    
frame= 1163 fps= 29 q=29.0 size=N/A time=00:00:38.66 bitrate=N/A dup=1 drop=0 speed=0.979x    
frame= 1179 fps= 29 q=29.0 size=N/A time=00:00:39.19 bitrate=N/A dup=1 drop=0 speed=0.979x    
frame= 1194 fps= 29 q=29.0 size=N/A time=00:00:39.69 bitrate=N/A dup=1 drop=0 speed=0.979x    
frame= 1210 fps= 29 q=29.0 size=N/A time=00:00:40.23 bitrate=N/A dup=1 drop=0 speed=0.979x    
frame= 1225 fps= 29 q=29.0 size=N/A time=00:00:40.73 bitrate=N/A dup=1 drop=0 speed=0.98x    
frame= 1240 fps= 29 q=26.0 size=N/A time=00:00:41.23 bitrate=N/A dup=1 drop=0 speed=0.98x    
frame= 1256 fps= 29 q=29.0 size=N/A time=00:00:41.76 bitrate=N/A dup=1 drop=0 speed=0.98x    
frame= 1271 fps= 29 q=29.0 size=N/A time=00:00:42.26 bitrate=N/A dup=1 drop=0 speed=0.98x    
frame= 1287 fps= 29 q=29.0 size=N/A time=00:00:42.79 bitrate=N/A dup=1 drop=0 speed=0.98x    
frame= 1303 fps= 29 q=29.0 size=N/A time=00:00:43.33 bitrate=N/A dup=1 drop=0 speed=0.981x    
frame= 1319 fps= 30 q=29.0 size=N/A time=00:00:43.86 bitrate=N/A dup=1 drop=0 speed=0.981x    
frame= 1333 fps= 29 q=29.0 size=N/A time=00:00:44.36 bitrate=N/A dup=1 drop=0 speed=0.981x    
frame= 1349 fps= 30 q=29.0 size=N/A time=00:00:44.86 bitrate=N/A dup=1 drop=0 speed=0.981x    
frame= 1365 fps= 30 q=29.0 size=N/A time=00:00:45.39 bitrate=N/A dup=1 drop=0 speed=0.982x    
frame= 1381 fps= 30 q=29.0 size=N/A time=00:00:45.93 bitrate=N/A dup=1 drop=0 speed=0.982x    
frame= 1396 fps= 30 q=29.0 size=N/A time=00:00:46.43 bitrate=N/A dup=1 drop=0 speed=0.982x    
frame= 1412 fps= 30 q=29.0 size=N/A time=00:00:46.96 bitrate=N/A dup=1 drop=0 speed=0.982x    
frame= 1427 fps= 30 q=29.0 size=N/A time=00:00:47.46 bitrate=N/A dup=1 drop=0 speed=0.983x    
frame= 1442 fps= 30 q=29.0 size=N/A time=00:00:47.96 bitrate=N/A dup=1 drop=0 speed=0.982x    
frame= 1458 fps= 30 q=29.0 size=N/A time=00:00:48.49 bitrate=N/A dup=1 drop=0 speed=0.983x    
frame= 1472 fps= 30 q=29.0 size=N/A time=00:00:48.99 bitrate=N/A dup=1 drop=0 speed=0.983x    
frame= 1489 fps= 30 q=29.0 size=N/A time=00:00:49.53 bitrate=N/A dup=1 drop=0 speed=0.983x    
frame= 1504 fps= 30 q=29.0 size=N/A time=00:00:50.03 bitrate=N/A dup=1 drop=0 speed=0.983x    
frame= 1520 fps= 30 q=29.0 size=N/A time=00:00:50.56 bitrate=N/A dup=1 drop=0 speed=0.984x    
frame= 1534 fps= 30 q=29.0 size=N/A time=00:00:51.06 bitrate=N/A dup=1 drop=0 speed=0.984x    
frame= 1550 fps= 30 q=29.0 size=N/A time=00:00:51.56 bitrate=N/A dup=1 drop=0 speed=0.984x    
frame= 1565 fps= 30 q=29.0 size=N/A time=00:00:52.06 bitrate=N/A dup=1 drop=0 speed=0.984x    
frame= 1581 fps= 30 q=29.0 size=N/A time=00:00:52.59 bitrate=N/A dup=1 drop=0 speed=0.984x    
frame= 1597 fps= 30 q=29.0 size=N/A time=00:00:53.13 bitrate=N/A dup=1 drop=0 speed=0.984x    
[out#0/segment @ 0000012655593d40] video:453kB audio:0kB subtitle:0kB other streams:0kB global headers:0kB muxing overhead: unknown
frame= 1630 fps= 30 q=-1.0 Lsize=N/A time=00:00:54.23 bitrate=N/A dup=1 drop=0 speed=0.999x    
[libx264 @ 0000012655595700] frame I:7     Avg QP: 9.91  size: 26491
[libx264 @ 0000012655595700] frame P:411   Avg QP:15.15  size:   396
[libx264 @ 0000012655595700] frame B:1212  Avg QP:20.33  size:    95
[libx264 @ 0000012655595700] consecutive B-frames:  0.9%  0.0%  0.0% 99.1%
[libx264 @ 0000012655595700] mb I  I16..4: 87.4%  5.4%  7.2%
[libx264 @ 0000012655595700] mb P  I16..4:  4.9%  0.4%  0.0%  P16..4:  0.1%  0.0%  0.0%  0.0%  0.0%    skip:94.5%
[libx264 @ 0000012655595700] mb B  I16..4:  0.0%  0.0%  0.0%  B16..8:  0.0%  0.0%  0.0%  direct: 0.4%  skip:99.6%  L0: 7.1% L1:92.9% BI: 0.0%
[libx264 @ 0000012655595700] 8x8 transform intra:7.2% inter:0.0%
[libx264 @ 0000012655595700] coded y,uvDC,uvAC intra: 10.3% 6.1% 2.6% inter: 0.0% 0.3% 0.0%
[libx264 @ 0000012655595700] i16 v,h,dc,p: 97%  2%  1%  0%
[libx264 @ 0000012655595700] i8 v,h,dc,ddl,ddr,vr,hd,vl,hu:  2%  4% 88%  1%  1%  1%  1%  1%  1%
[libx264 @ 0000012655595700] i4 v,h,dc,ddl,ddr,vr,hd,vl,hu: 27% 25% 24%  5%  6%  3%  4%  3%  4%
[libx264 @ 0000012655595700] i8c dc,h,v,p: 86%  6%  8%  0%
[libx264 @ 0000012655595700] Weighted P-Frames: Y:0.0% UV:0.0%
[libx264 @ 0000012655595700] kb/s:68.17
Exiting normally, received signal 2.

2023-11-15 01:20:18,030 - ffmpeg_logger - ERROR - Error in command ffmpeg -f dshow -i video="Surface Camera Rear" -c:v libx264 -crf 23 -preset veryfast -segment_time 60 -f segment -reset_timestamps 1 output_surface_camera_rear_%03d.mp4: ffmpeg version N-112750-g6d60cc7baf-20231114 Copyright (c) 2000-2023 the FFmpeg developers
  built with gcc 13.2.0 (crosstool-NG 1.25.0.232_c175b21)
  configuration: --prefix=/ffbuild/prefix --pkg-config-flags=--static --pkg-config=pkg-config --cross-prefix=x86_64-w64-mingw32- --arch=x86_64 --target-os=mingw32 --enable-gpl --enable-version3 --disable-debug --disable-w32threads --enable-pthreads --enable-iconv --enable-libxml2 --enable-zlib --enable-libfreetype --enable-libfribidi --enable-gmp --enable-lzma --enable-fontconfig --enable-libharfbuzz --enable-libvorbis --enable-opencl --disable-libpulse --enable-libvmaf --disable-libxcb --disable-xlib --enable-amf --enable-libaom --enable-libaribb24 --enable-avisynth --enable-chromaprint --enable-libdav1d --enable-libdavs2 --disable-libfdk-aac --enable-ffnvcodec --enable-cuda-llvm --enable-frei0r --enable-libgme --enable-libkvazaar --enable-libaribcaption --enable-libass --enable-libbluray --enable-libjxl --enable-libmp3lame --enable-libopus --enable-librist --enable-libssh --enable-libtheora --enable-libvpx --enable-libwebp --enable-lv2 --enable-libvpl --enable-openal --enable-libopencore-amrnb --enable-libopencore-amrwb --enable-libopenh264 --enable-libopenjpeg --enable-libopenmpt --enable-librav1e --enable-librubberband --enable-schannel --enable-sdl2 --enable-libsoxr --enable-libsrt --enable-libsvtav1 --enable-libtwolame --enable-libuavs3d --disable-libdrm --enable-vaapi --enable-libvidstab --enable-vulkan --enable-libshaderc --enable-libplacebo --enable-libx264 --enable-libx265 --enable-libxavs2 --enable-libxvid --enable-libzimg --enable-libzvbi --extra-cflags=-DLIBTWOLAME_STATIC --extra-cxxflags= --extra-ldflags=-pthread --extra-ldexeflags= --extra-libs=-lgomp --extra-version=20231114
  libavutil      58. 32.100 / 58. 32.100
  libavcodec     60. 33.100 / 60. 33.100
  libavformat    60. 17.100 / 60. 17.100
  libavdevice    60.  4.100 / 60.  4.100
  libavfilter     9. 13.100 /  9. 13.100
  libswscale      7.  6.100 /  7.  6.100
  libswresample   4. 13.100 /  4. 13.100
  libpostproc    57.  4.100 / 57.  4.100
Input #0, dshow, from 'video=Surface Camera Rear':
  Duration: N/A, bitrate: N/A
  Stream #0:0: Video: rawvideo (YUY2 / 0x32595559), yuyv422, 640x360, 30 fps, 30 tbr, 10000k tbn
Stream mapping:
  Stream #0:0 -> #0:0 (rawvideo (native) -> h264 (libx264))
Press [q] to stop, [?] for help
[out#0/segment @ 0000025885d02d40] Nothing was written into output file, because at least one of its streams received no packets.
frame=    0 fps=0.0 q=0.0 Lsize=       0kB time=N/A bitrate=N/A speed=N/A    
Exiting normally, received signal 2.

2023-11-15 01:20:18,193 - ffmpeg_logger - ERROR - Error in command ffmpeg -f dshow -i video="Surface Camera Front" -c:v libx264 -crf 23 -preset veryfast -segment_time 60 -f segment -reset_timestamps 1 output_surface_camera_front_%03d.mp4: ffmpeg version N-112750-g6d60cc7baf-20231114 Copyright (c) 2000-2023 the FFmpeg developers
  built with gcc 13.2.0 (crosstool-NG 1.25.0.232_c175b21)
  configuration: --prefix=/ffbuild/prefix --pkg-config-flags=--static --pkg-config=pkg-config --cross-prefix=x86_64-w64-mingw32- --arch=x86_64 --target-os=mingw32 --enable-gpl --enable-version3 --disable-debug --disable-w32threads --enable-pthreads --enable-iconv --enable-libxml2 --enable-zlib --enable-libfreetype --enable-libfribidi --enable-gmp --enable-lzma --enable-fontconfig --enable-libharfbuzz --enable-libvorbis --enable-opencl --disable-libpulse --enable-libvmaf --disable-libxcb --disable-xlib --enable-amf --enable-libaom --enable-libaribb24 --enable-avisynth --enable-chromaprint --enable-libdav1d --enable-libdavs2 --disable-libfdk-aac --enable-ffnvcodec --enable-cuda-llvm --enable-frei0r --enable-libgme --enable-libkvazaar --enable-libaribcaption --enable-libass --enable-libbluray --enable-libjxl --enable-libmp3lame --enable-libopus --enable-librist --enable-libssh --enable-libtheora --enable-libvpx --enable-libwebp --enable-lv2 --enable-libvpl --enable-openal --enable-libopencore-amrnb --enable-libopencore-amrwb --enable-libopenh264 --enable-libopenjpeg --enable-libopenmpt --enable-librav1e --enable-librubberband --enable-schannel --enable-sdl2 --enable-libsoxr --enable-libsrt --enable-libsvtav1 --enable-libtwolame --enable-libuavs3d --disable-libdrm --enable-vaapi --enable-libvidstab --enable-vulkan --enable-libshaderc --enable-libplacebo --enable-libx264 --enable-libx265 --enable-libxavs2 --enable-libxvid --enable-libzimg --enable-libzvbi --extra-cflags=-DLIBTWOLAME_STATIC --extra-cxxflags= --extra-ldflags=-pthread --extra-ldexeflags= --extra-libs=-lgomp --extra-version=20231114
  libavutil      58. 32.100 / 58. 32.100
  libavcodec     60. 33.100 / 60. 33.100
  libavformat    60. 17.100 / 60. 17.100
  libavdevice    60.  4.100 / 60.  4.100
  libavfilter     9. 13.100 /  9. 13.100
  libswscale      7.  6.100 /  7.  6.100
  libswresample   4. 13.100 /  4. 13.100
  libpostproc    57.  4.100 / 57.  4.100
Input #0, dshow, from 'video=Surface Camera Front':
  Duration: N/A, bitrate: N/A
  Stream #0:0: Video: rawvideo (YUY2 / 0x32595559), yuyv422, 640x360, 30 fps, 30 tbr, 10000k tbn
Stream mapping:
  Stream #0:0 -> #0:0 (rawvideo (native) -> h264 (libx264))
Press [q] to stop, [?] for help
[out#0/segment @ 000001a8e545a180] Nothing was written into output file, because at least one of its streams received no packets.
frame=    0 fps=0.0 q=0.0 Lsize=       0kB time=N/A bitrate=N/A speed=N/A    
Exiting normally, received signal 2.

